<?xml version="1.0" encoding="UTF-8"?>
<svg xmlns="http://www.w3.org/2000/svg" xmlns:xlink="http://www.w3.org/1999/xlink" width="113.25pt" height="113.249998pt" viewBox="0 0 113.25 113.249998" version="1.2">
<defs>
<clipPath id="clip1">
  <path d="M 29.3125 5.433594 L 83.820312 5.433594 L 83.820312 53.222656 L 29.3125 53.222656 Z M 29.3125 5.433594 "/>
</clipPath>
<clipPath id="clip2">
  <path d="M 0 29.132812 L 47.789062 29.132812 L 47.789062 83.640625 L 0 83.640625 Z M 0 29.132812 "/>
</clipPath>
<clipPath id="clip3">
  <path d="M 29.207031 59.65625 L 83.714844 59.65625 L 83.714844 107.445312 L 29.207031 107.445312 Z M 29.207031 59.65625 "/>
</clipPath>
<clipPath id="clip4">
  <path d="M 65.089844 29.238281 L 112.503906 29.238281 L 112.503906 83.746094 L 65.089844 83.746094 Z M 65.089844 29.238281 "/>
</clipPath>
</defs>
<g id="surface1">
<g clip-path="url(#clip1)" clip-rule="nonzero">
<path style=" stroke:none;fill-rule:nonzero;fill:rgb(0%,0%,0%);fill-opacity:1;" d="M 29.382812 19.53125 C 29.382812 34.710938 56.566406 53.222656 56.566406 53.222656 C 56.566406 53.222656 83.632812 34.578125 83.753906 19.53125 C 83.753906 11.765625 77.433594 5.433594 69.679688 5.433594 C 63.722656 5.433594 58.589844 9.257812 56.566406 14.507812 C 54.542969 9.257812 49.414062 5.433594 43.453125 5.433594 C 35.699219 5.433594 29.382812 11.765625 29.382812 19.53125 "/>
</g>
<g clip-path="url(#clip2)" clip-rule="nonzero">
<path style=" stroke:none;fill-rule:nonzero;fill:rgb(0%,0%,0%);fill-opacity:1;" d="M 14.097656 83.570312 C 29.277344 83.570312 47.789062 56.386719 47.789062 56.386719 C 47.789062 56.386719 29.144531 29.320312 14.097656 29.203125 C 6.332031 29.203125 0 35.519531 0 43.273438 C 0 49.230469 3.824219 54.363281 9.078125 56.386719 C 3.824219 58.410156 0 63.542969 0 69.5 C 0 77.253906 6.332031 83.570312 14.097656 83.570312 "/>
</g>
<g clip-path="url(#clip3)" clip-rule="nonzero">
<path style=" stroke:none;fill-rule:nonzero;fill:rgb(0%,0%,0%);fill-opacity:1;" d="M 83.648438 93.347656 C 83.648438 78.167969 56.460938 59.65625 56.460938 59.65625 C 56.460938 59.65625 29.398438 78.300781 29.277344 93.347656 C 29.277344 101.113281 35.59375 107.445312 43.347656 107.445312 C 49.308594 107.445312 54.441406 103.621094 56.460938 98.367188 C 58.484375 103.621094 63.617188 107.445312 69.578125 107.445312 C 77.328125 107.445312 83.648438 101.113281 83.648438 93.347656 "/>
</g>
<g clip-path="url(#clip4)" clip-rule="nonzero">
<path style=" stroke:none;fill-rule:nonzero;fill:rgb(0%,0%,0%);fill-opacity:1;" d="M 98.78125 29.308594 C 83.601562 29.308594 65.089844 56.492188 65.089844 56.492188 C 65.089844 56.492188 83.734375 83.558594 98.78125 83.675781 C 106.546875 83.675781 112.878906 77.359375 112.878906 69.605469 C 112.878906 63.648438 109.054688 58.515625 103.800781 56.492188 C 109.054688 54.46875 112.878906 49.335938 112.878906 43.378906 C 112.878906 35.625 106.546875 29.308594 98.78125 29.308594 "/>
</g>
</g>
</svg>
